PathFileType  4	(X/Y/Z) C:\Users\antoi\Documents\MyRepositories\mobilecap\ResultsAnalysis
DataRate	CameraRate	NumFrames	NumMarkers	Units	OrigDataRate	OrigDataStartFrame	OrigNumFrames
100.0	100.0	6	51	mm	100.0	120	136
Frame#	Time	r_knee			r_shank_antsup			r_ankle			r_calc			r_5meta			r_toe			L_knee			L_shank_antsup			L_ankle			L_calc			L_5meta			L_toe			r_sh2			r_sh3			r_sh4			L_sh2			L_sh3			r_thigh1			r_thigh2			r_thigh3			r_thigh4			r_thigh5			L_thigh1			L_thigh2			L_thigh3			L_thigh4			r.ASIS			r.PSIS			L.ASIS			L.PSIS			C7			R_Shoulder			L_Shoulder			R_Sternum			L_Sternum			R_humerus			R_elbow_med			R_elbow_lat			R_forearm			R_wrist_radius			R_wrist_ulna			L_humerus			L_elbow_med			L_elbow_lat			L_forearm			L_wrist_radius			L_wrist_ulna			R_HJC			L_HJC			R_HJC_reg			L_HJC_reg			
		X1	Y1	Z1	X2	Y2	Z2	X3	Y3	Z3	X4	Y4	Z4	X5	Y5	Z5	X6	Y6	Z6	X7	Y7	Z7	X8	Y8	Z8	X9	Y9	Z9	X10	Y10	Z10	X11	Y11	Z11	X12	Y12	Z12	X13	Y13	Z13	X14	Y14	Z14	X15	Y15	Z15	X16	Y16	Z16	X17	Y17	Z17	X18	Y18	Z18	X19	Y19	Z19	X20	Y20	Z20	X21	Y21	Z21	X22	Y22	Z22	X23	Y23	Z23	X24	Y24	Z24	X25	Y25	Z25	X26	Y26	Z26	X27	Y27	Z27	X28	Y28	Z28	X29	Y29	Z29	X30	Y30	Z30	X31	Y31	Z31	X32	Y32	Z32	X33	Y33	Z33	X34	Y34	Z34	X35	Y35	Z35	X36	Y36	Z36	X37	Y37	Z37	X38	Y38	Z38	X39	Y39	Z39	X40	Y40	Z40	X41	Y41	Z41	X42	Y42	Z42	X43	Y43	Z43	X44	Y44	Z44	X45	Y45	Z45	X46	Y46	Z46	X47	Y47	Z47	X48	Y48	Z48	X49	Y49	Z49	X50	Y50	Z50	X51	Y51	Z51	

120	1.19000000	1379.65784	460.05252	-97.52672	1430.94662	410.79834	-101.88097	1456.60819	77.50398	-122.94697	1409.62263	48.72563	-170.78702	1573.21790	50.82125	-104.40351	1608.97868	89.26105	-154.02780	1113.33168	461.50615	-349.92444	1103.14586	368.47230	-334.38112	879.96087	145.56541	-332.48334	808.99479	143.98124	-293.56581	942.31606	44.04270	-347.81035	989.27695	40.79750	-289.62864	1442.87803	298.84838	-96.99492	1358.97040	402.89937	-74.72014	1362.08816	285.83289	-77.57478	1048.96546	423.89073	-378.39916	973.05175	327.23029	-385.63908	1350.20467	706.04987	-44.41122	1383.74872	599.04759	-65.86849	1328.01778	558.65729	-66.58361	1242.08550	671.65412	-55.47651	1276.70593	567.87678	-86.63809	1246.87584	705.62160	-409.41279	1209.86526	577.45539	-375.01434	1138.88359	736.02896	-411.00778	1101.88579	614.26085	-354.27997	1345.12179	903.48583	-123.95292	1131.09801	923.69046	-183.09533	1335.52887	889.26667	-347.17145	1131.60970	924.21625	-262.98592	1217.80015	1369.40127	-229.54559	1244.69479	1335.82550	-81.74139	1275.76137	1343.48096	-359.58470	1340.13078	1303.81664	-188.81678	1343.47387	1304.30866	-231.62353	1232.17108	1224.78705	-15.05112	1114.47248	1039.89080	-51.27630	1133.54420	1044.84428	12.18461	1174.89088	965.29252	45.74097	1182.80094	818.50899	60.55726	1149.19213	824.98314	79.03012	1298.53923	1250.00822	-436.67448	1259.82985	1024.00731	-454.09758	1300.93962	1055.57210	-504.23724	1388.84907	992.42439	-489.82841	1468.06130	896.60133	-457.33086	1453.16198	880.80315	-491.37605	1266.08963	814.08298	-119.78426	1252.74620	805.59544	-326.68540	1272.31486	823.68116	-155.29461	1273.25555	824.65725	-303.04118	
121	1.20000000	1391.90155	461.09844	-95.60154	1443.22834	410.68978	-100.87441	1459.59620	76.96022	-122.40659	1411.28479	50.15163	-170.73549	1575.70761	46.77008	-104.93240	1612.52479	83.57564	-154.84695	1131.13875	459.87980	-350.89084	1118.04789	366.98841	-336.72750	888.47174	150.47064	-333.93629	817.81346	153.49575	-294.68027	944.48722	44.74945	-348.12096	991.54644	40.14713	-290.17218	1452.67658	298.51854	-96.21181	1371.60833	404.30176	-72.46183	1372.18366	287.21394	-75.18396	1065.31943	424.64415	-379.03715	986.10497	330.84398	-386.30531	1362.85946	706.94615	-41.77944	1396.01752	599.77780	-63.32201	1340.07724	559.73478	-64.59003	1254.61849	673.12820	-53.52883	1289.08815	569.06464	-84.80408	1263.00550	705.31117	-407.79299	1227.05169	576.43935	-374.80421	1154.77165	734.80384	-409.56804	1119.03021	612.33389	-353.68188	1358.73442	904.47122	-121.49790	1145.07745	924.55588	-182.66369	1350.70373	889.18527	-344.75876	1146.49454	924.73736	-262.66836	1230.80679	1369.85355	-227.29073	1258.10660	1336.08781	-79.47792	1288.75359	1344.35933	-357.49550	1353.40285	1304.76688	-186.69930	1356.66517	1305.29727	-229.47091	1246.51487	1224.62403	-13.25815	1129.78563	1039.19217	-49.87714	1149.03734	1044.00716	13.58013	1190.80951	964.58444	46.81176	1199.58707	817.81734	61.15451	1165.84135	824.00511	79.61596	1311.01519	1250.68007	-434.60614	1270.98032	1025.00468	-451.02887	1312.06675	1055.92640	-501.50950	1399.15476	991.28981	-488.01801	1476.85751	893.83088	-456.60577	1461.51581	878.44703	-490.59341	1279.46448	815.16298	-117.66209	1267.88252	805.67859	-324.62129	1285.79957	824.49029	-153.31374	1288.40177	824.83376	-301.06599	
122	1.21000000	1404.33462	462.38057	-93.58042	1455.22741	410.71887	-99.71056	1462.01502	76.80119	-122.15148	1412.68037	51.34877	-170.65351	1577.59475	43.71434	-105.23439	1615.35255	78.79994	-155.52067	1150.24851	457.92153	-352.20141	1134.14773	365.39243	-339.47664	898.24253	155.85207	-335.29534	828.18945	163.91736	-295.83854	947.08359	46.05909	-348.46759	994.08984	39.80889	-290.68655	1462.02386	298.36518	-95.33238	1383.96162	405.92466	-70.12367	1381.81688	288.85859	-72.77636	1082.79971	425.29868	-379.89377	1000.30357	334.58717	-386.96917	1375.64896	708.34446	-39.33670	1408.64467	601.09291	-60.93416	1352.63676	561.21098	-62.34857	1267.33257	674.76733	-51.21606	1301.86119	570.44742	-82.55350	1279.53099	705.07293	-406.06890	1245.13051	575.34167	-374.74600	1170.99999	733.27466	-408.03403	1136.96101	609.86907	-353.28809	1372.13694	905.76151	-118.96917	1158.83791	925.74126	-182.28521	1365.69703	889.28571	-342.14260	1161.21802	925.50519	-262.40321	1243.82244	1370.53910	-225.08675	1271.57170	1336.61039	-77.27638	1301.75605	1345.45642	-355.45587	1366.63695	1305.93762	-184.67539	1369.82572	1306.47819	-227.39543	1261.04391	1224.70419	-11.53546	1145.36466	1038.68321	-48.32188	1164.93112	1043.34056	15.06359	1207.27179	964.06911	47.79989	1216.99665	817.28729	61.54884	1183.16634	823.18679	80.13635	1323.38836	1251.56076	-432.58412	1282.12249	1026.25517	-448.00567	1323.03542	1056.50329	-498.73477	1409.21631	990.31293	-486.26271	1485.26259	891.11647	-456.00851	1469.47406	876.22710	-489.94493	1292.55421	816.57914	-115.42855	1282.84947	805.95979	-322.42356	1299.01084	825.66897	-151.22384	1303.37746	825.24524	-298.89006	
123	1.22000000	1416.62752	463.71815	-91.56272	1466.62752	410.76849	-98.41112	1463.95142	76.95965	-122.20365	1413.81016	52.34682	-170.55820	1578.92998	41.60431	-105.40400	1617.55431	74.90937	-156.14780	1170.66264	455.62267	-353.80693	1151.48015	363.67256	-342.45328	909.37124	161.79992	-336.50895	840.36657	175.23864	-296.91353	950.21000	48.23159	-348.81916	996.98947	39.90834	-291.14920	1470.69534	298.27829	-94.40247	1395.63870	407.57583	-67.91134	1390.68967	290.58985	-70.61800	1101.50770	425.79909	-380.93424	1015.77969	338.35925	-387.53092	1388.52743	710.07168	-37.12688	1421.47449	602.78344	-58.76113	1365.49130	562.93835	-59.97060	1280.16207	676.50119	-48.56120	1314.77372	571.97137	-79.96510	1296.38799	704.87972	-404.26581	1264.07014	574.15901	-374.82736	1187.51847	731.38851	-406.41709	1155.60694	606.81002	-353.14505	1385.32964	907.31996	-116.38168	1172.34057	927.16875	-181.97386	1380.41612	889.53563	-339.35859	1175.66677	926.45145	-262.16923	1256.80807	1371.41374	-222.95756	1285.06139	1337.36382	-75.16274	1314.75801	1346.71984	-353.47251	1379.79561	1307.25668	-182.77032	1382.92279	1307.78312	-225.41529	1275.71474	1225.01170	-9.89701	1161.17103	1038.34311	-46.62716	1181.16557	1042.83242	16.61952	1224.22704	963.75115	48.71517	1235.02760	816.94025	61.76509	1201.17119	822.53624	80.60040	1335.67883	1252.60502	-430.62333	1293.18903	1027.76586	-445.01385	1333.83866	1057.26439	-495.95852	1419.04685	989.49810	-484.58658	1493.29872	888.49030	-455.52812	1477.06488	874.16865	-489.42202	1305.34388	818.28299	-113.10478	1297.57754	806.39008	-320.10738	1311.98091	827.15372	-148.98518	1318.08013	825.84507	-296.49544	
124	1.23000000	1428.41437	464.94757	-89.65816	1477.17386	410.73777	-97.01648	1465.53029	77.35582	-122.52930	1414.71378	53.19338	-170.47672	1579.82839	40.29189	-105.53593	1619.26221	71.79045	-156.80800	1192.30041	453.03397	-355.62486	1170.03190	361.83118	-345.45267	921.94303	168.32372	-337.52046	854.60080	187.34390	-297.72461	953.96885	51.48075	-349.12522	1000.35344	40.56270	-291.55905	1478.53341	298.15877	-93.46268	1406.32822	409.08412	-65.99488	1398.58555	292.25252	-68.91348	1121.49232	426.10248	-382.09292	1032.64215	342.04295	-387.89929	1401.37777	711.89401	-35.14136	1434.22417	604.55839	-56.80320	1378.27989	564.73217	-57.58575	1292.95505	678.27194	-45.65251	1327.47252	573.58111	-77.20759	1313.48864	704.72276	-402.43479	1283.78674	572.92389	-375.03104	1204.25099	729.14179	-404.75242	1174.85723	603.18568	-353.27304	1398.32671	909.08075	-113.75523	1185.57622	928.73044	-181.73515	1394.79357	889.89695	-336.46940	1189.73944	927.50310	-261.94054	1269.72854	1372.42590	-220.92129	1298.54786	1338.30452	-73.15550	1327.73164	1348.08930	-351.55229	1392.85328	1308.64979	-181.00535	1395.92562	1309.14280	-223.54648	1290.48685	1225.51668	-8.34973	1177.15022	1038.14500	-44.82188	1197.66936	1042.46230	18.23119	1241.60725	963.62600	49.57142	1253.67148	816.79790	61.83875	1219.85033	822.05602	81.01351	1347.90912	1253.75956	-428.73411	1304.11474	1029.50422	-442.03733	1344.46863	1058.15579	-493.23242	1428.66101	988.82873	-483.01032	1501.00040	885.97348	-455.15480	1484.31673	872.27320	-489.00961	1317.84488	820.19217	-110.72996	1312.01419	806.91647	-317.70953	1324.78316	828.82839	-146.57376	1332.41743	826.58004	-293.89604	
125	1.24000000	1439.37152	465.94916	-87.96656	1486.70215	410.55314	-95.58269	1466.86200	77.89533	-123.05728	1415.44037	53.92647	-170.43973	1580.42483	39.57224	-105.69395	1620.59648	69.27871	-157.53222	1215.01185	450.26392	-357.55368	1189.77258	359.89854	-348.27821	936.02616	175.32867	-338.27323	871.11993	199.99208	-298.05792	958.46209	55.92948	-349.32705	1004.32000	41.85797	-291.95618	1485.45952	297.93141	-92.54608	1415.84578	410.32967	-64.47492	1405.40310	293.73314	-67.75724	1142.73411	426.19541	-383.28543	1050.95639	345.51940	-388.01586	1414.03707	713.57612	-33.34194	1446.55732	606.12250	-55.03070	1390.58375	566.41421	-55.32640	1305.51246	680.04023	-42.64355	1339.60185	575.23231	-74.50110	1330.73008	704.62132	-400.63991	1304.15228	571.70798	-375.33536	1221.10045	726.59040	-403.09999	1194.58950	599.11182	-353.65930	1411.14220	910.95018	-111.12314	1198.55628	930.31330	-181.55446	1408.79820	890.33614	-333.55847	1203.36611	928.58697	-261.69138	1282.55380	1373.52580	-218.98545	1312.00569	1339.38072	-71.26388	1340.63015	1349.50439	-349.70515	1405.79732	1310.04971	-179.39462	1408.80616	1310.49635	-221.80342	1305.32635	1226.17857	-6.89336	1193.24097	1038.05777	-42.93892	1214.36754	1042.20326	19.88342	1259.33542	963.67948	50.38208	1272.90833	816.87801	61.80759	1239.18342	821.74350	81.37665	1360.09286	1254.96916	-426.92269	1314.85439	1031.39240	-439.08329	1354.92472	1059.11834	-490.60708	1438.07193	988.26814	-481.54727	1508.41386	883.57588	-454.87999	1491.26233	870.52363	-488.68998	1330.08840	822.19723	-108.36034	1326.12583	807.49291	-315.28867	1337.49381	830.56565	-143.99545	1346.31902	827.39548	-291.13778	
